# This file uses centimeters as units for non-parametric coordinates.

mtllib jengaBlock.mtl
g default
v -1.918020 0.012029 0.627518
v -1.888978 0.000000 0.627518
v -1.888978 0.012029 0.656560
v -1.888978 0.041071 0.668589
v -1.918020 0.041071 0.656560
v -1.930049 0.041071 0.627518
v 1.918020 0.012029 0.627518
v 1.930049 0.041071 0.627518
v 1.918020 0.041071 0.656560
v 1.888978 0.041071 0.668589
v 1.888978 0.012029 0.656560
v 1.888978 0.000000 0.627518
v -1.918020 0.809464 0.627518
v -1.930049 0.780423 0.627518
v -1.918020 0.780423 0.656560
v -1.888978 0.780423 0.668589
v -1.888978 0.809464 0.656560
v -1.888978 0.821494 0.627518
v 1.918020 0.809464 0.627518
v 1.888978 0.821494 0.627518
v 1.888978 0.809464 0.656560
v 1.888978 0.780423 0.668589
v 1.918020 0.780423 0.656560
v 1.930049 0.780423 0.627518
v -1.918020 0.780423 -0.656560
v -1.930049 0.780423 -0.627518
v -1.918020 0.809464 -0.627518
v -1.888978 0.821494 -0.627518
v -1.888978 0.809464 -0.656560
v -1.888978 0.780423 -0.668589
v 1.918020 0.780423 -0.656560
v 1.888978 0.780423 -0.668589
v 1.888978 0.809464 -0.656560
v 1.888978 0.821494 -0.627518
v 1.918020 0.809464 -0.627518
v 1.930049 0.780423 -0.627518
v -1.918020 0.012029 -0.627518
v -1.930049 0.041071 -0.627518
v -1.918020 0.041071 -0.656560
v -1.888978 0.041071 -0.668589
v -1.888978 0.012029 -0.656560
v -1.888978 0.000000 -0.627518
v 1.918020 0.012029 -0.627518
v 1.888978 0.000000 -0.627518
v 1.888978 0.012029 -0.656560
v 1.888978 0.041071 -0.668589
v 1.918020 0.041071 -0.656560
v 1.930049 0.041071 -0.627518
v -1.912682 0.017367 0.651222
v 1.912682 0.017367 0.651222
v -1.912682 0.804127 0.651222
v 1.912682 0.804127 0.651222
v -1.912682 0.804127 -0.651222
v 1.912682 0.804127 -0.651222
v -1.912682 0.017367 -0.651222
v 1.912682 0.017367 -0.651222
vt 0.587313 0.009326
vt 0.435604 0.530349
vt 0.435604 0.539857
vt 0.591756 0.009326
vt 0.016872 0.348360
vt 0.024705 0.539857
vt 0.024705 0.530349
vt 0.445112 0.539857
vt 0.016872 0.342736
vt 0.445112 0.781921
vt 0.748443 0.342736
vt 0.435604 0.781921
vt 0.024705 0.539857
vt 0.024705 0.530349
vt 0.435604 0.530349
vt 0.748443 0.348360
vt 0.011248 0.348360
vt 0.435604 0.539857
vt 0.015197 0.539857
vt 0.024705 0.781921
vt 0.015197 0.781921
vt 0.016872 0.491529
vt 0.011248 0.491529
vt 0.435604 0.791429
vt 0.591756 0.201333
vt 0.587313 0.201333
vt 0.024705 0.791429
vt 0.754066 0.348360
vt 0.024705 0.781921
vt 0.024705 0.791429
vt 0.435604 0.781921
vt 0.435604 0.791429
vt 0.015197 0.781921
vt 0.015197 0.539857
vt 0.587313 0.004883
vt 0.009326 0.009326
vt 0.445112 0.781921
vt 0.445112 0.539857
vt 0.443365 0.532096
vt 0.016944 0.532096
vt 0.443365 0.789681
vt 0.754066 0.491529
vt 0.748443 0.491529
vt 0.016872 0.497153
vt 0.016944 0.789682
vt 0.748443 0.497153
vt 0.016944 0.789681
vt 0.443365 0.789682
vt 0.016944 0.532096
vt 0.757249 0.491529
vt 0.443365 0.532096
vt 0.751625 0.491529
vt 0.009326 0.004883
vt 0.004883 0.009326
vt 0.751625 0.348360
vt 0.757249 0.348360
vt 0.009326 0.201333
vt 0.004883 0.201333
vt 0.004883 0.009326
vt 0.009326 0.009326
vt 0.009326 0.201333
vt 0.004883 0.201333
vt 0.009326 0.004883
vt 0.587313 0.004883
vt 0.587313 0.009326
vt 0.591756 0.009326
vt 0.591756 0.201333
vt 0.587313 0.201333
vt 0.009326 0.205776
vt 0.587313 0.205776
vt 0.587313 0.205776
vt 0.009326 0.205776
vt 0.751625 0.497153
vt 0.020054 0.497153
vt 0.020054 0.491529
vt 0.014431 0.491529
vt 0.014431 0.348360
vt 0.020054 0.348360
vt 0.751625 0.342736
vt 0.020054 0.342736
vt 0.012282 0.343770
vt 0.753033 0.343770
vt 0.012282 0.496119
vt 0.753033 0.496119
vt 0.756215 0.496119
vt 0.015464 0.496119
vt 0.756215 0.343769
vt 0.015464 0.343769
vt 0.590940 0.005699
vt 0.005699 0.005699
vt 0.005699 0.005699
vt 0.590940 0.005699
vt 0.005699 0.204960
vt 0.590940 0.204960
vt 0.590940 0.204960
vt 0.005699 0.204960
vn -0.003123 -0.999952 0.009331
vn -0.381852 -0.924194 0.007352
vn -0.381852 -0.924194 -0.007352
vn -0.003123 -0.999952 -0.009331
vn -0.924096 -0.382129 0.004928
vn -0.999836 -0.015555 0.009267
vn -0.999836 -0.015555 -0.009267
vn -0.924096 -0.382129 -0.004928
vn -0.003116 -0.015611 0.999873
vn -0.001343 -0.382531 0.923941
vn 0.001343 -0.382531 0.923941
vn 0.003116 -0.015611 0.999873
vn -0.002154 -0.923977 0.382441
vn 0.003123 -0.999952 0.009331
vn 0.002154 -0.923977 0.382441
vn -0.924284 -0.009678 0.381584
vn -0.924284 0.009678 0.381584
vn -0.999836 0.015555 0.009267
vn -0.381429 -0.011002 0.924333
vn -0.003116 0.015611 0.999873
vn -0.381429 0.011002 0.924333
vn 0.999836 -0.015555 0.009267
vn 0.924096 -0.382129 0.004928
vn 0.924096 -0.382129 -0.004928
vn 0.999836 -0.015555 -0.009267
vn 0.381852 -0.924194 0.007352
vn 0.003123 -0.999952 -0.009331
vn 0.381852 -0.924194 -0.007352
vn 0.381429 -0.011002 0.924333
vn 0.381429 0.011002 0.924333
vn 0.003116 0.015611 0.999873
vn 0.924284 -0.009678 0.381584
vn 0.999836 0.015555 0.009267
vn 0.924284 0.009678 0.381584
vn -0.924096 0.382129 0.004928
vn -0.924096 0.382129 -0.004928
vn -0.999836 0.015555 -0.009267
vn -0.381850 0.924195 0.007352
vn -0.003123 0.999952 0.009331
vn -0.003123 0.999952 -0.009331
vn -0.381850 0.924195 -0.007352
vn -0.002154 0.923979 0.382438
vn 0.002154 0.923979 0.382438
vn 0.003123 0.999952 0.009331
vn -0.001343 0.382531 0.923941
vn 0.001343 0.382531 0.923941
vn 0.381850 0.924195 0.007352
vn 0.381850 0.924195 -0.007352
vn 0.003123 0.999952 -0.009331
vn 0.924096 0.382129 0.004928
vn 0.999836 0.015555 -0.009267
vn 0.924096 0.382129 -0.004928
vn -0.924284 0.009678 -0.381584
vn -0.924284 -0.009678 -0.381584
vn -0.381429 0.011002 -0.924333
vn -0.003116 0.015611 -0.999873
vn -0.003116 -0.015611 -0.999873
vn -0.381429 -0.011002 -0.924333
vn -0.001343 0.382531 -0.923941
vn 0.001343 0.382531 -0.923941
vn 0.003116 0.015611 -0.999873
vn -0.002154 0.923979 -0.382438
vn 0.002154 0.923979 -0.382438
vn 0.381429 0.011002 -0.924333
vn 0.381429 -0.011002 -0.924333
vn 0.003116 -0.015611 -0.999873
vn 0.924284 0.009678 -0.381584
vn 0.924284 -0.009678 -0.381584
vn -0.002154 -0.923977 -0.382441
vn 0.002154 -0.923977 -0.382441
vn -0.001343 -0.382531 -0.923941
vn 0.001343 -0.382531 -0.923941
vn -0.887919 -0.325268 0.325269
vn -0.325268 -0.887919 0.325269
vn -0.325269 -0.325270 0.887919
vn 0.325269 -0.887919 0.325269
vn 0.887918 -0.325271 0.325269
vn 0.325268 -0.325270 0.887919
vn -0.325266 0.887921 0.325266
vn -0.887919 0.325271 0.325269
vn -0.325268 0.325269 0.887919
vn 0.887920 0.325268 0.325269
vn 0.325265 0.887922 0.325266
vn 0.325268 0.325269 0.887919
vn -0.325268 0.325269 -0.887919
vn -0.887920 0.325268 -0.325269
vn -0.325265 0.887922 -0.325266
vn 0.887919 0.325271 -0.325269
vn 0.325268 0.325269 -0.887919
vn 0.325266 0.887921 -0.325266
vn -0.325269 -0.887919 -0.325269
vn -0.887918 -0.325271 -0.325269
vn -0.325268 -0.325270 -0.887919
vn 0.887919 -0.325268 -0.325269
vn 0.325268 -0.887919 -0.325269
vn 0.325269 -0.325270 -0.887919
s 1
g JengaCube
usemtl initialShadingGroup
f 2/1/1 1/4/2 37/25/3 42/26/4
s 2
f 1/2/5 6/3/6 38/6/7 37/7/8
s 3
f 4/5/9 3/9/10 11/11/11 10/16/12
s 1
f 3/35/13 2/1/1 12/36/14 11/53/15
s 2
f 6/3/6 5/8/16 15/10/17 14/12/18
s 3
f 5/17/19 4/5/9 16/22/20 15/23/21
s 4
f 8/13/22 7/14/23 43/15/24 48/18/25
s 1
f 7/54/26 12/36/14 44/57/27 43/58/28
s 3
f 10/16/12 9/28/29 23/42/30 22/43/31
s 4
f 9/19/32 8/13/22 24/20/33 23/21/34
s 2
f 14/12/18 13/24/35 27/27/36 26/29/37
s 5
f 13/59/38 18/60/39 28/61/40 27/62/41
f 18/60/39 17/63/42 21/64/43 20/65/44
s 3
f 17/44/45 16/22/20 22/43/31 21/46/46
s 5
f 20/65/44 19/66/47 35/67/48 34/68/49
s 4
f 19/30/50 24/20/33 36/31/51 35/32/52
s 2
f 26/29/37 25/33/53 39/34/54 38/6/7
s 6
f 25/50/55 30/52/56 40/55/57 39/56/58
f 30/52/56 29/73/59 33/74/60 32/75/61
s 5
f 29/69/62 28/61/40 34/68/49 33/70/63
s 6
f 32/75/61 31/76/64 47/77/65 46/78/66
s 4
f 31/37/67 36/31/51 48/18/25 47/38/68
s 1
f 42/26/4 41/71/69 45/72/70 44/57/27
s 6
f 41/79/71 40/55/57 46/78/66 45/80/72
s 3
f 4/5/9 10/16/12 22/43/31 16/22/20
s 5
f 18/60/39 20/65/44 34/68/49 28/61/40
s 6
f 30/52/56 32/75/61 46/78/66 40/55/57
s 1
f 42/26/4 44/57/27 12/36/14 2/1/1
s 4
f 8/13/22 48/18/25 36/31/51 24/20/33
s 2
f 38/6/7 6/3/6 14/12/18 26/29/37
f 5/8/16 6/3/6 1/2/5 49/39/73
s 1
f 1/4/2 2/1/1 3/35/13 49/89/74
s 3
f 3/9/10 4/5/9 5/17/19 49/81/75
s 1
f 11/53/15 12/36/14 7/54/26 50/90/76
s 4
f 7/14/23 8/13/22 9/19/32 50/40/77
s 3
f 9/28/29 10/16/12 11/11/11 50/82/78
s 5
f 17/63/42 18/60/39 13/59/38 51/91/79
s 2
f 13/24/35 14/12/18 15/10/17 51/41/80
s 3
f 15/23/21 16/22/20 17/44/45 51/83/81
s 4
f 23/21/34 24/20/33 19/30/50 52/45/82
s 5
f 19/66/47 20/65/44 21/64/43 52/92/83
s 3
f 21/46/46 22/43/31 23/42/30 52/84/84
s 6
f 29/73/59 30/52/56 25/50/55 53/85/85
s 2
f 25/33/53 26/29/37 27/27/36 53/47/86
s 5
f 27/62/41 28/61/40 29/69/62 53/93/87
s 4
f 35/32/52 36/31/51 31/37/67 54/48/88
s 6
f 31/76/64 32/75/61 33/74/60 54/86/89
s 5
f 33/70/63 34/68/49 35/67/48 54/94/90
s 1
f 41/71/69 42/26/4 37/25/3 55/95/91
s 2
f 37/7/8 38/6/7 39/34/54 55/49/92
s 6
f 39/56/58 40/55/57 41/79/71 55/87/93
s 4
f 47/38/68 48/18/25 43/15/24 56/51/94
s 1
f 43/58/28 44/57/27 45/72/70 56/96/95
s 6
f 45/80/72 46/78/66 47/77/65 56/88/96
